<?xml version="1.0" encoding="utf-8"?>
<!-- Generator: Adobe Illustrator 19.0.0, SVG Export Plug-In . SVG Version: 6.00 Build 0)  -->
<svg version="1.1" id="China" xmlns="http://www.w3.org/2000/svg" xmlns:xlink="http://www.w3.org/1999/xlink" x="0px" y="0px"
	 viewBox="120 -20 1200 600" style="enable-background:new 120 -20 1200 600;" xml:space="preserve">
<style type="text/css">
	.st0{fill:#E50012;}
	.st1{fill:#E50012;stroke:#231815;stroke-width:0.1;}
	.st2{fill:#FFF000;}
</style>
<g>
	<rect x="120" y="-20" class="st0" width="1200" height="600"/>
	<rect x="120" y="-20" class="st1" width="1200" height="600"/>
	<polygon class="st2" points="313.7,159.8 387.8,199.9 359.6,134.9 433.5,94.7 342,94.7 313.7,29.7 285.4,94.7 193.9,94.7 
		267.9,134.9 239.7,199.9 	"/>
	<polygon class="st2" points="531,39.9 564.9,33.6 532.6,23.7 535,-2.3 512.5,17.7 480.2,7.9 498.6,30 476.1,49.9 510,43.7 
		528.5,65.8 	"/>
	<polygon class="st2" points="531,256.7 564.9,250.5 532.6,240.6 535,214.6 512.5,234.6 480.2,224.8 498.6,246.9 476.1,266.8 
		510,260.6 528.5,282.7 	"/>
	<polygon class="st2" points="612.1,107.3 646.5,111.7 622.2,93 638.4,69.9 607.1,81.5 582.7,62.8 587.7,88.6 556.4,100.1 
		590.8,104.6 595.8,130.4 	"/>
	<polygon class="st2" points="601.3,200.7 630.2,215.2 618.4,190.7 645.9,174.7 611,175.6 599.1,151 589.4,176.1 554.5,177 
		583.4,191.6 573.7,216.6 	"/>
</g>
</svg>
